<?xml version="1.0" encoding="utf-8"?>
<!-- Generator: Adobe Illustrator 16.0.0, SVG Export Plug-In . SVG Version: 6.00 Build 0)  -->
<!DOCTYPE svg PUBLIC "-//W3C//DTD SVG 1.1//EN" "http://www.w3.org/Graphics/SVG/1.1/DTD/svg11.dtd">
<svg version="1.1" id="Layer_1" xmlns="http://www.w3.org/2000/svg" xmlns:xlink="http://www.w3.org/1999/xlink" x="0px" y="0px"
	 width="226.068px" height="226.069px" viewBox="0 0 226.068 226.069" enable-background="new 0 0 226.068 226.069"
	 xml:space="preserve">
<g>
	<path fill-rule="evenodd" clip-rule="evenodd" fill="#FFFFFF" d="M53.395,77.985c0,13.661-0.012,27.324,0.004,40.984
		c0.01,7.049,2.055,9.119,9.152,9.438c25.454,1.143,49.743-4.293,73.349-13.252c11.076-4.203,22.597-4.91,34.208-5.354
		c1.742-0.068,3.627-0.002,4.04,2.004c0.378,1.838-1.156,2.799-2.772,2.641c-20.434-2.016-38.499,7.008-57.321,12.352
		c-17.791,5.053-35.886,6.455-54.235,5.744c-6.158-0.238-10.515-4.611-10.563-10.863c-0.229-28.653-0.406-57.307-0.426-85.959
		c-0.006-7.957,4.534-12.063,12.599-12.089c9.329-0.031,18.659-0.004,27.99-0.01c1.987-0.002,4.637-0.33,4.574,2.382
		c-0.051,2.221-2.544,2.126-4.412,2.125c-9.164-0.013-18.327-0.047-27.49,0.008c-7.058,0.043-8.767,1.824-8.769,8.865
		c-0.003,13.662-0.001,27.323-0.001,40.985C53.345,77.985,53.37,77.985,53.395,77.985z"/>
	<path fill-rule="evenodd" clip-rule="evenodd" fill="#FFFFFF" d="M185.433,92.135c0,18.325,0.012,36.647-0.004,54.973
		c-0.009,10.25-3.198,13.471-13.273,13.473c-11.994,0.002-23.988,0.021-35.983-0.025c-1.67-0.006-4.276,0.82-4.346-1.85
		c-0.079-3.074,2.734-2.164,4.525-2.174c11.993-0.059,23.988-0.002,35.981-0.041c6.663-0.023,9.012-2.383,9.015-8.961
		c0.009-36.98,0.011-73.963-0.003-110.945c-0.003-6.241-2.059-8.38-8.376-8.438c-9.994-0.092-19.99,0.029-29.985-0.078
		c-1.74-0.019-4.612,0.939-4.578-2.209c0.034-3.065,2.799-2.196,4.62-2.208c10.162-0.063,20.324-0.073,30.484-0.016
		c7.712,0.045,11.903,4.289,11.914,12.026C185.452,54.486,185.433,73.311,185.433,92.135z"/>
	<path fill-rule="evenodd" clip-rule="evenodd" fill="#FFFFFF" d="M83.429,96.134c5.588,1.539,10.791,3.014,16.017,4.4
		c4.61,1.225,7.433,4.229,8.662,8.713c0.892,3.252-0.445,4.943-3.862,4.236c-12.302-2.555-24.609-5.09-36.857-7.883
		c-5.362-1.225-7.091-6.298-3.764-10.777c5.343-7.199,10.775-14.342,16.447-21.281c4.11-5.028,9.132-8.769,16.199-8.213
		c1.301,0.103,2.904-0.145,3.066,1.721c0.169,1.953-1.126,2.668-2.867,2.526c-5.822-0.479-9.832,2.78-13.137,6.825
		c-5.353,6.552-10.335,13.407-15.5,20.113c-1.924,2.496-2.446,4.32,1.571,5.127c10.813,2.172,21.595,4.502,32.857,6.869
		c-0.411-2.982-2.544-3.289-4.188-3.789c-4.894-1.48-9.87-2.689-14.779-4.121c-5.317-1.551-6.146-4.164-2.589-8.197
		c2.642-2.996,5.61-5.713,8.124-8.806c2.697-3.319,5.167-2.284,7.54,0.039c2.675,2.618,3.062,6.093,3.02,9.654
		c-0.019,1.653-0.845,2.552-2.395,2.554c-1.441,0-1.814-1.092-1.954-2.389c-0.255-2.399,0.316-5.955-2.201-6.531
		c-2.286-0.522-3.536,3.02-5.332,4.667C86.068,92.909,84.876,94.498,83.429,96.134z"/>
	<path fill-rule="evenodd" clip-rule="evenodd" fill="#FFFFFF" d="M153.917,190.979c0.001,0.332,0.001,0.664,0.001,0.996
		c0,8.5,0,8.5-5.584,8.65c-8.182,0.219-10.629-1.803-10.927-9.127c-0.095-2.318,0.041-4.648-0.064-6.965
		c-0.089-1.957,0.332-3.059,2.664-3.105c2.328-0.047,2.734,0.973,2.717,2.971c-0.027,2.975,0.144,5.955,0.351,8.926
		c0.15,2.16,1.425,3.285,3.618,3.199c2.938-0.113,1.559-2.402,1.665-3.723c0.215-2.637,0.136-5.307,0.04-7.955
		c-0.073-2.063,0.116-3.441,2.826-3.428c2.849,0.014,2.711,1.707,2.696,3.59C153.906,186.999,153.917,188.989,153.917,190.979z"/>
	<path fill-rule="evenodd" clip-rule="evenodd" fill="#FFFFFF" d="M114.164,101.425c0.396-5.979,0.856-11.953,1.153-17.937
		c0.088-1.76,0.548-3.682-0.928-5.232c-0.955-1.005-1.948-2.271-0.265-3.285c1.949-1.174,4.199-1.114,6.187-0.017
		c1.804,0.996,0.807,2.285-0.149,3.235c-1.271,1.265-0.926,2.753-0.86,4.222c0.356,7.981,0.689,15.963,1.113,23.941
		c0.155,2.928,0.217,6.809-3.127,6.715c-3.656-0.105-3.533-4.023-3.123-7.137c0.193-1.482,0.165-2.992,0.238-4.49
		C114.324,101.437,114.243,101.431,114.164,101.425z"/>
	<path fill-rule="evenodd" clip-rule="evenodd" fill="#FFFFFF" d="M48.62,155.284c-0.001-3.15,0.063-6.303-0.023-9.451
		c-0.056-2.047,0.12-3.455,2.816-3.479c2.581-0.021,2.99,1.109,2.935,3.301c-0.121,4.641,0.183,9.299-0.11,13.924
		c-0.211,3.291,0.848,4.436,4.085,4.029c1.42-0.178,2.999-0.037,4.341,0.43c1.046,0.365,0.623,1.738,0.627,2.691
		c0.007,1.58-1.059,1.834-2.347,1.828c-3.316-0.018-6.635-0.074-9.947,0.018c-2.139,0.061-2.408-1.16-2.388-2.844
		C48.648,162.249,48.62,158.766,48.62,155.284z"/>
	<path fill-rule="evenodd" clip-rule="evenodd" fill="#FFFFFF" d="M100.982,149.602c-2.978,5.301-5.524,9.836-8.398,14.949
		c2.166,0,3.752,0.043,5.334-0.014c1.479-0.053,2.524,0.074,2.493,2.055c-0.033,2.057-1.28,1.955-2.645,1.953
		c-4.105-0.004-8.209-0.002-13.179-0.002c2.842-5.201,5.325-9.742,7.787-14.246c-0.375-0.307-0.568-0.551-0.821-0.656
		c-1.933-0.811-5.639,1.49-5.778-1.773c-0.176-4.076,3.743-1.895,5.819-2.174C94.369,149.321,97.23,149.602,100.982,149.602z"/>
	<path fill-rule="evenodd" clip-rule="evenodd" fill="#FFFFFF" d="M164.67,192.674c0.002,2.654,0.103,5.313-0.021,7.961
		c-0.229,4.939-3.075,7.26-7.82,6.391c-0.989-0.18-2.477,0.031-2.474-1.766c0.002-1.518,0.384-2.74,2.169-2.594
		c3.15,0.258,3.159-1.961,2.896-3.902c-0.649-4.775,1.979-10.021-2.145-14.373c-0.554-0.586-0.603-3.145,1.471-2.701
		c1.993,0.426,5.427-2.293,5.866,2.035C164.912,186.68,164.669,189.69,164.67,192.674z"/>
	<path fill-rule="evenodd" clip-rule="evenodd" fill="#FFFFFF" d="M129.991,200.612c-4.161,0.223-7.212-0.955-8.752-4.717
		c-1.678-4.1-1.542-8.145,1.165-11.734c2.576-3.418,6.435-2.793,10.069-2.623c1.451,0.068,1.979,0.828,1.928,2.268
		c-0.071,1.957-1.229,1.813-2.701,1.852c-4.756,0.127-7.178,2.932-6.106,7.014c0.572,2.18,1.719,3.771,4.41,3.959
		c1.533,0.105,4.408-2.02,4.461,1.684C134.517,202.155,131.262,199.864,129.991,200.612z"/>
	<path fill-rule="evenodd" clip-rule="evenodd" fill="#FFFFFF" d="M88.367,190.559c-0.003-1.494,0.04-2.988-0.012-4.48
		c-0.134-3.777,0.122-6.801,4.904-3.242c1.328,0.988,2.083-0.945,3.234-1.049c1.029-0.094,2.473-0.986,2.861,0.76
		c0.224,1.006,0.711,2.803-0.677,3.025c-6.51,1.049-4.849,6.014-5.096,10.084c-0.08,1.322,0.147,2.711-0.183,3.959
		c-0.404,1.531-1.911,0.832-2.972,0.941c-1.469,0.154-2.089-0.584-2.069-2.033C88.394,195.87,88.37,193.213,88.367,190.559z"/>
	<path fill-rule="evenodd" clip-rule="evenodd" fill="#FFFFFF" d="M55.144,190.866c0.002,2.328-0.093,4.658,0.029,6.979
		c0.12,2.279-0.998,2.803-3.025,2.797c-2.025-0.006-2.585-0.965-2.546-2.768c0.059-2.658,0.044-5.318-0.002-7.977
		c-0.02-1.146,0.206-2.969-0.376-3.314c-1.933-1.154-2.745-3.088-1.595-4.373c1.459-1.631,4.129-0.852,6.148-0.5
		c2.383,0.416,1.165,2.701,1.324,4.178C55.28,187.528,55.142,189.206,55.144,190.866z"/>
	<path fill-rule="evenodd" clip-rule="evenodd" fill="#FFFFFF" d="M96.287,144.637c0.149,2.059-0.904,2.82-2.976,2.844
		c-2.011,0.021-3.041-0.508-3.053-2.76c-0.009-2.006,0.819-2.641,2.648-2.535C94.547,142.282,96.419,141.967,96.287,144.637z"/>
	<path fill-rule="evenodd" clip-rule="evenodd" fill="#FFFFFF" d="M52.022,179.391c-1.883,0.203-3.244-0.318-3.383-2.477
		c-0.138-2.133,1.014-2.889,2.991-2.854c1.553,0.029,2.969,0.041,2.887,2.24C54.452,178.032,54.517,179.709,52.022,179.391z"/>
	<path fill-rule="evenodd" clip-rule="evenodd" fill="#FFFFFF" d="M161.935,179.403c-2.275-0.023-3.54-0.611-3.557-2.811
		c-0.021-2.434,1.616-2.449,3.311-2.502c1.68-0.053,2.781,0.33,2.748,2.426C164.404,178.608,163.631,179.577,161.935,179.403z"/>
	<path fill-rule="evenodd" clip-rule="evenodd" fill="#FFFFFF" d="M173.476,40.539c-1.749-2.962-4.31-3.706-7.636-3.161
		c-8.661,1.42-17.354,2.637-26.03,3.968c-2.088,0.32-3.933,0.794-3.707-2.557c0.405-5.967-2.415-10.151-7.83-12.597
		c0.674-1.646,3.563-2.147,2.523-4.429c-0.997-2.187-3.246-1.009-4.939-1.16c-5.97-0.536-11.669-0.042-16.21,5.567
		c-0.297-5.537-2.686-4.657-5.384-2.444c-3.639,2.985-5.757,6.841-5.86,11.577c-0.125,5.657-0.182,11.325,0.009,16.978
		c0.237,7.044,7.727,16.216,14.429,18.018c7.205,1.937,13.801-0.601,18.509-8.216c3.091-5,6.846-7.599,13.744-6.944
		c-2.926,2.189-5.156,3.802-7.317,5.501c-1.042,0.818-1.255,1.89-0.438,3.054c0.881,1.255,1.975,1.072,3.014,0.351
		c3.401-2.362,6.818-4.707,10.114-7.211c1.506-1.144,2.517-2.671,1.347-4.75c-1.004-1.785-2.431-2.701-4.484-2.4
		c-2.619,0.383-5.228,0.837-7.84,1.271c-1.294,0.215-3.046,1.661-3.298-1.06c-0.184-1.99-0.401-3.875,2.646-4.277
		c8.699-1.147,17.351-2.648,26.04-3.874c1.493-0.21,3.452-1.085,4.505,0.845c1.036,1.899-0.614,3.018-1.649,4.254
		c-7.793,9.302-15.268,18.897-23.469,27.824c-8.07,8.785-7.977,19.595-9.032,30.245c-0.12,1.219,0.214,2.438,1.713,2.584
		c1.67,0.162,2.322-0.863,2.474-2.42c0.275-2.809,0.685-5.603,0.939-8.412c0.655-7.203,2.369-13.774,7.505-19.461
		c8.349-9.247,16.117-19.017,24.153-28.548C174.078,46.207,175.316,43.656,173.476,40.539z M125.186,63.134
		c-4.355,4.624-12.26,4.411-16.517-0.234c-1.881-2.053-4.01-4.358-4.727-6.914c-2.403-8.56-1.51-17.203,0.367-25.849
		c1.527,1.249,0.067,3.536,2.189,4.271c2.347,0.813,3.121-1.394,4.212-2.718c2.649-3.217,5.322-6.338,10.539-7.274
		c-2.691,4.384-0.654,5.016,3.037,5.465c5.476,0.666,7.109,3.109,7.143,8.816c0.019,3.324-0.329,6.689,0.075,9.964
		C132.265,54.841,128.927,59.163,125.186,63.134z"/>
	<path fill-rule="evenodd" clip-rule="evenodd" fill="#FFFFFF" d="M84.71,182.34c-0.331-5.764-3.672-8.207-11.994-8.201
		c-3.837-0.754-5.751,0.846-5.332,5.834c0.459,5.451,0.121,10.971,0.097,16.459c-0.01,2.211-0.355,4.326,3.132,4.221
		c3.323-0.098,2.839-2.279,2.631-4.129c-0.35-3.094,0.75-4.094,3.887-4.543C82.932,191.149,85.039,188.075,84.71,182.34z
		 M73.433,178.528c2.524,0.131,6.052,1.906,5.906,4.795c-0.13,2.568-3.379,3.91-5.838,3.986"/>
	<path fill-rule="evenodd" clip-rule="evenodd" fill="#FFFFFF" d="M109.853,160.61c2.319-0.08,4.646-0.088,6.965-0.01
		c1.686,0.057,2.303-0.617,2.347-2.309c0.109-4.17-2.781-8.145-6.539-8.758c-4.787-0.779-8.924,1.539-10.248,5.744
		c-2.302,7.297,0.925,12.354,8.846,13.781c-0.862,2.006-3.133,3.793-1.198,6.262c1.593,2.033,3.902,1.527,5.994,1.355
		c2.14-0.176,1.813-2.475,0.962-2.736c-5.406-1.656-2.577-3.627-0.287-5.355c1.433-1.08,1.083-2.1,0.749-3.424
		c-0.5-1.982-1.677-0.836-2.702-0.775c-1.951,0.113-3.971,0.68-5.797-0.563c-0.833-0.566-1.727-1.189-1.497-2.34
		C107.736,160.04,109,160.639,109.853,160.61z M109.494,153.747c2.688-0.814,3.843,0.801,4.707,3.918
		c-2.589-0.609-5.144,1.162-6.698-1.045C106.76,155.565,108.207,154.135,109.494,153.747z"/>
	<path fill-rule="evenodd" clip-rule="evenodd" fill="#FFFFFF" d="M179.013,181.495c-5.623-0.76-9.748,2.289-10.618,7.844
		c-0.997,6.369,2.365,10.57,9.656,11.52c-0.363,0.604-0.584,1.059-0.884,1.453c-1.339,1.766-1.8,3.674-0.129,5.357
		c1.721,1.732,4.058,1.193,6.148,0.877c1.843-0.279,1.354-2.328,0.643-2.537c-6.701-1.965-2.22-3.877-0.104-5.879
		c0.982-0.93,0.826-2.131,0.37-3.244c-0.648-1.584-1.756-0.717-2.868-0.584c-3.054,0.363-6.392,1.012-7.52-3.748
		c1.76,0,3.222,0,4.684,0c1.496,0,2.993,0.053,4.485-0.018c1.037-0.051,2.179,0.422,2.589-1.41
		C186.409,186.913,183.314,182.075,179.013,181.495z M180.224,188.569c-1.536,2.281-4.063,0.42-6.429,1.053
		c0.464-3.387,1.961-4.537,4.498-3.918C179.64,186.032,180.96,187.473,180.224,188.569z"/>
	<path fill-rule="evenodd" clip-rule="evenodd" fill="#FFFFFF" d="M79.134,160.512c2.645,0.217,3.429-0.703,3.315-3.332
		c-0.153-3.594-1.768-6.273-4.961-7.295c-3.361-1.076-6.906-0.9-9.622,2.125c-3.046,3.391-3.427,9.648-0.752,13.422
		c2.02,2.848,9.448,4.523,12.865,2.963c1.324-0.604,1.643-1.604,1.282-2.83c-0.347-1.182-0.879-1.77-2.499-1.402
		c-3.218,0.732-6.631,1.172-8.293-3.699C73.831,160.463,76.498,160.295,79.134,160.512z M70.626,157.172
		c1.18-3.482,2.854-4.143,5.046-3.299c0.852,0.328,2.723,2.713,1.661,2.793C70.626,157.172,77.333,156.667,70.626,157.172z"/>
	<path fill="#FFFFFF" d="M106.089,181.504c-1.58,0.129-3.685-0.117-3.513,2.309c0.16,2.246,1.864,2.045,3.664,1.863
		c1.968-0.199,4.472-0.9,5.106,2.297c-1.53,1.146-3.277,0.205-4.806,0.67c-3.295,1-5.642,2.729-5.193,6.697
		c0.414,3.658,2.737,4.986,6.05,5.252c8.738,0.703,9.083,0.383,9.081-8.516c-0.001-0.332-0.025-0.666,0.004-0.996
		C117.292,181.766,112.544,180.979,106.089,181.504z M109.608,196.563c-1.791-0.021-3.199-0.391-3.255-2.367
		c-0.056-2.027,1.622-2.246,3.028-2.547c2.044-0.441,2.007,1.016,2.009,2.398C111.391,195.409,111.527,196.834,109.608,196.563z"/>
	<path fill-rule="evenodd" clip-rule="evenodd" fill="#FFFFFF" d="M124.199,46.473c-0.375,1.58-1.213,2.848-2.846,2.908
		c-1.47,0.054-2.413-1.217-2.602-2.507c-0.211-1.439,0.818-2.549,2.217-2.797C122.72,43.765,123.543,45.063,124.199,46.473z"/>
	<path fill-rule="evenodd" clip-rule="evenodd" fill="#FFFFFF" d="M116.108,41.176c-1.97-0.021-3.652-1.145-5.423,0.764
		c-0.94,1.015-3.026,2.884-4.01,0.949c-0.897-1.767,2.136-1.65,3.188-2.706C112.311,37.73,114.513,38.074,116.108,41.176z"/>
	<path fill-rule="evenodd" clip-rule="evenodd" fill="#FFFFFF" d="M115.5,46.383c0.014,2.051-1.017,3.076-2.665,2.947
		c-1.3-0.102-2.438-0.989-2.468-2.559c-0.037-1.875,1.277-2.622,2.822-2.633C114.608,44.128,115.631,44.967,115.5,46.383z"/>
	<path fill-rule="evenodd" clip-rule="evenodd" fill="#FFFFFF" d="M126.864,44.984c-0.645-1.826-2.771-2.518-3.753-4.251
		c-0.237-0.421,0.589-1.158,1.335-1.006c2.122,0.434,3.381,1.839,3.875,3.884C128.494,44.319,127.986,44.808,126.864,44.984z"/>
</g>
</svg>
