<svg xmlns="http://www.w3.org/2000/svg" width="216.783" height="239.94" viewBox="0 0 216.783 239.94">
  <g id="employee_flat" transform="translate(-24.707 0)">
    <path id="Path_240" data-name="Path 240" d="M160.616,259.453l-22.052-8.675H60.291l-22.052,8.675a21.347,21.347,0,0,0-13.515,20.719L27.4,347.014a7.116,7.116,0,0,0,7.11,6.831H164.344a7.116,7.116,0,0,0,7.11-6.831l2.677-66.842A21.348,21.348,0,0,0,160.616,259.453Z" transform="translate(0 -133.255)" fill="#c9c6ca"/>
    <path id="Path_241" data-name="Path 241" d="M167.9,303.684l-4.552,78.274h19.495l-4.552-78.274Z" transform="translate(-73.671 -161.367)" fill="#6e4b53"/>
    <path id="Path_242" data-name="Path 242" d="M179.328,295.139h-6.492a3.87,3.87,0,0,1-3.87-3.87V280.908H183.2V291.27A3.87,3.87,0,0,1,179.328,295.139Z" transform="translate(-76.655 -149.265)" fill="#5c414b"/>
    <rect id="Rectangle_1117" data-name="Rectangle 1117" width="49.811" height="42.697" transform="translate(74.524 88.947)" fill="#e6af78"/>
    <path id="Path_243" data-name="Path 243" d="M131.006,203.089a42.5,42.5,0,0,0,49.811,0V189.8H131.006Z" transform="translate(-56.484 -100.855)" fill="#d29b6e"/>
    <path id="Path_244" data-name="Path 244" d="M135.741.112c-17.764.96-27.87,10.674-27.87,10.674s-14.825,0-14.825,17.789A132.922,132.922,0,0,0,96.6,56.927h81.832C185.552,17.79,168.651-1.667,135.741.112Z" transform="translate(-36.313 0)" fill="#6e4b53"/>
    <path id="Path_245" data-name="Path 245" d="M114.393,54.474c-13.07-16.341-6.523-31.459-6.523-31.459s-14.825,0-14.825,17.789A132.922,132.922,0,0,0,96.6,69.156h17.789V54.474Z" transform="translate(-36.312 -12.229)" fill="#5c414b"/>
    <path id="Path_246" data-name="Path 246" d="M170.843,97.4h-3.558L162.6,88.839a3.58,3.58,0,0,0-3.8-1.766c-23.432,4.286-38.831-1.16-44.666-3.887a3.5,3.5,0,0,0-4.331,1.127A75.166,75.166,0,0,1,99.846,95.5a7.127,7.127,0,0,1-4.838,1.9H92.443a6.951,6.951,0,0,0-1.194.127,7.522,7.522,0,0,0-5.8,7.506v2.578a7.473,7.473,0,0,0,5.493,7.387,7.046,7.046,0,0,0,2.168.168,3.466,3.466,0,0,1,3.632,2.892,35.538,35.538,0,0,0,69.919,0,3.456,3.456,0,0,1,3.444-2.87h.733a7.116,7.116,0,0,0,7.116-7.116V104.51A7.115,7.115,0,0,0,170.843,97.4Z" transform="translate(-32.278 -44.026)" fill="#f0c087"/>
    <path id="Path_247" data-name="Path 247" d="M110.359,112.665V84.809a3.385,3.385,0,0,0-.556.543,75.166,75.166,0,0,1-9.956,11.186,7.127,7.127,0,0,1-4.838,1.9H92.443a6.951,6.951,0,0,0-1.194.127,7.522,7.522,0,0,0-5.8,7.506v2.578a7.473,7.473,0,0,0,5.493,7.387,7.046,7.046,0,0,0,2.168.168,3.466,3.466,0,0,1,3.632,2.892,35.448,35.448,0,0,0,42.014,28.426A35.59,35.59,0,0,1,110.359,112.665Z" transform="translate(-32.278 -45.064)" fill="#e6af78"/>
    <g id="Group_375" data-name="Group 375" transform="translate(24.707 108.161)">
      <path id="Path_248" data-name="Path 248" d="M139.775,254.394l-25.958-22.713a3.558,3.558,0,0,0-4.859.162l-8.32,8.32,16.533,24.8a7.116,7.116,0,0,0,10.952,1.084Z" transform="translate(-65.054 -230.801)" fill="#dbd9dc"/>
      <path id="Path_249" data-name="Path 249" d="M184.151,254.394l25.958-22.713a3.558,3.558,0,0,1,4.859.162l8.32,8.32-16.533,24.8a7.116,7.116,0,0,1-10.952,1.084Z" transform="translate(-109.43 -230.801)" fill="#dbd9dc"/>
      <path id="Path_250" data-name="Path 250" d="M43.364,303.4,27.885,287.918a21.281,21.281,0,0,0-3.161,11.99L27.4,366.749a7.116,7.116,0,0,0,7.11,6.831H49.617V318.492A21.348,21.348,0,0,0,43.364,303.4Z" transform="translate(-24.707 -261.151)" fill="#dbd9dc"/>
    </g>
    <g id="Group_376" data-name="Group 376" transform="translate(129.26 131.58)">
      <path id="Path_251" data-name="Path 251" d="M321.613,292.384a3.874,3.874,0,0,1,3.87-3.87H348.7a3.874,3.874,0,0,1,3.87,3.87v15.48h7.74v-15.48a11.623,11.623,0,0,0-11.61-11.61h-23.22a11.623,11.623,0,0,0-11.61,11.61v15.48h7.74Z" transform="translate(-282.913 -280.774)" fill="#6e4b53"/>
      <path id="Path_252" data-name="Path 252" d="M247.809,371.613v54.574A11.216,11.216,0,0,0,259.025,437.4h85.928a11.217,11.217,0,0,0,11.216-11.216V371.613Z" transform="translate(-247.809 -329.043)" fill="#6e4b53"/>
    </g>
    <path id="Path_253" data-name="Path 253" d="M297.6,380.633a115.784,115.784,0,0,0,19.351-1.591l15.476-4c14.1-5.1,23.223-13.218,23.223-22.363v-10.75a11.61,11.61,0,0,0-11.61-11.61h-92.88a11.61,11.61,0,0,0-11.61,11.61v10.75c0,9.145,9.122,17.264,23.223,22.363l15.476,4A115.779,115.779,0,0,0,297.6,380.633Z" transform="translate(-114.161 -175.522)" fill="#825a5a"/>
    <g id="Group_377" data-name="Group 377" transform="translate(148.61 193.501)">
      <path id="Path_254" data-name="Path 254" d="M296.839,432.254h0a7.74,7.74,0,0,1-7.74-7.74v-7.74a3.87,3.87,0,0,1,3.87-3.87h7.74a3.87,3.87,0,0,1,3.87,3.87v7.74A7.74,7.74,0,0,1,296.839,432.254Z" transform="translate(-289.099 -412.904)" fill="#c9c6ca"/>
      <path id="Path_255" data-name="Path 255" d="M412.452,432.254h0a7.74,7.74,0,0,1-7.74-7.74v-7.74a3.87,3.87,0,0,1,3.87-3.87h7.74a3.87,3.87,0,0,1,3.87,3.87v7.74A7.74,7.74,0,0,1,412.452,432.254Z" transform="translate(-350.532 -412.904)" fill="#c9c6ca"/>
    </g>
    <g id="Group_378" data-name="Group 378" transform="translate(152.482 201.242)">
      <circle id="Ellipse_275" data-name="Ellipse 275" cx="3.87" cy="3.87" r="3.87" fill="#dbd9dc"/>
      <circle id="Ellipse_276" data-name="Ellipse 276" cx="3.87" cy="3.87" r="3.87" transform="translate(54.179)" fill="#dbd9dc"/>
    </g>
  </g>
</svg>
