<svg xmlns="http://www.w3.org/2000/svg" width="161.32" height="206.49" viewBox="0 0 161.32 206.49">
  <g id="test" transform="translate(-56)">
    <g id="Group_350" data-name="Group 350" transform="translate(56 16.132)">
      <path id="Path_226" data-name="Path 226" d="M201.188,40H72.132A16.151,16.151,0,0,0,56,56.132V214.226a16.151,16.151,0,0,0,16.132,16.132H201.188a16.151,16.151,0,0,0,16.132-16.132V56.132A16.151,16.151,0,0,0,201.188,40Z" transform="translate(-56 -40)" fill="#996459"/>
    </g>
    <g id="Group_351" data-name="Group 351" transform="translate(68.906 29.038)">
      <path id="Path_227" data-name="Path 227" d="M220.121,72a3.373,3.373,0,0,1,3.388,3.358V233.189a3.373,3.373,0,0,1-3.388,3.358H91.388A3.373,3.373,0,0,1,88,233.189V75.358A3.373,3.373,0,0,1,91.388,72Z" transform="translate(-88 -72)" fill="#fff"/>
    </g>
    <g id="Group_353" data-name="Group 353" transform="translate(88.264 54.849)">
      <g id="Group_352" data-name="Group 352">
        <path id="Path_228" data-name="Path 228" d="M161.811,168.264H142.453A6.461,6.461,0,0,1,136,161.811V142.453A6.461,6.461,0,0,1,142.453,136h19.358a6.461,6.461,0,0,1,6.453,6.453v19.358A6.461,6.461,0,0,1,161.811,168.264Zm-19.358-25.811v19.358h19.365l-.006-19.358Z" transform="translate(-136 -136)" fill="#b4b6bc"/>
      </g>
    </g>
    <g id="Group_355" data-name="Group 355" transform="translate(126.981 58.075)">
      <g id="Group_354" data-name="Group 354" transform="translate(0)">
        <path id="Path_229" data-name="Path 229" d="M244.906,150.453h-9.679a3.226,3.226,0,0,1,0-6.453h9.679a3.226,3.226,0,1,1,0,6.453Z" transform="translate(-232 -144)" fill="#5c546a"/>
      </g>
    </g>
    <g id="Group_357" data-name="Group 357" transform="translate(126.981 70.981)">
      <g id="Group_356" data-name="Group 356" transform="translate(0)">
        <path id="Path_230" data-name="Path 230" d="M283.622,182.453h-48.4a3.226,3.226,0,0,1,0-6.453h48.4a3.226,3.226,0,1,1,0,6.453Z" transform="translate(-232 -176)" fill="#868491"/>
      </g>
    </g>
    <g id="Group_359" data-name="Group 359" transform="translate(126.981 103.245)">
      <g id="Group_358" data-name="Group 358" transform="translate(0)">
        <path id="Path_231" data-name="Path 231" d="M267.49,262.453H235.226a3.226,3.226,0,1,1,0-6.453H267.49a3.226,3.226,0,0,1,0,6.453Z" transform="translate(-232 -256)" fill="#5c546a"/>
      </g>
    </g>
    <g id="Group_361" data-name="Group 361" transform="translate(126.981 116.151)">
      <g id="Group_360" data-name="Group 360" transform="translate(0)">
        <path id="Path_232" data-name="Path 232" d="M283.622,294.453h-48.4a3.226,3.226,0,1,1,0-6.453h48.4a3.226,3.226,0,1,1,0,6.453Z" transform="translate(-232 -288)" fill="#868491"/>
      </g>
    </g>
    <g id="Group_363" data-name="Group 363" transform="translate(126.981 145.188)">
      <g id="Group_362" data-name="Group 362" transform="translate(0)">
        <path id="Path_233" data-name="Path 233" d="M248.132,366.453H235.226a3.226,3.226,0,0,1,0-6.453h12.906a3.226,3.226,0,0,1,0,6.453Z" transform="translate(-232 -360)" fill="#5c546a"/>
      </g>
    </g>
    <g id="Group_365" data-name="Group 365" transform="translate(126.981 158.094)">
      <g id="Group_364" data-name="Group 364" transform="translate(0)">
        <path id="Path_234" data-name="Path 234" d="M283.622,398.453h-48.4a3.226,3.226,0,1,1,0-6.453h48.4a3.226,3.226,0,1,1,0,6.453Z" transform="translate(-232 -392)" fill="#868491"/>
      </g>
    </g>
    <g id="Group_367" data-name="Group 367" transform="translate(120.528)">
      <g id="Group_366" data-name="Group 366" transform="translate(0)">
        <path id="Path_235" data-name="Path 235" d="M245.038,16.132a3.224,3.224,0,0,1-3.226-3.226V9.679a3.229,3.229,0,0,0-3.226-3.226H225.679a3.229,3.229,0,0,0-3.226,3.226v3.226a3.226,3.226,0,0,1-6.453,0V9.679A9.69,9.69,0,0,1,225.679,0h12.906a9.69,9.69,0,0,1,9.679,9.679v3.226A3.224,3.224,0,0,1,245.038,16.132Z" transform="translate(-216)" fill="#868491"/>
      </g>
    </g>
    <g id="Group_368" data-name="Group 368" transform="translate(97.943 9.679)">
      <path id="Path_236" data-name="Path 236" d="M234.207,24H163.226A3.227,3.227,0,0,0,160,27.226v9.679a16.132,16.132,0,0,0,16.132,16.132H221.3a16.132,16.132,0,0,0,16.132-16.132V27.226A3.227,3.227,0,0,0,234.207,24Z" transform="translate(-160 -24)" fill="#b4b6bc"/>
    </g>
    <g id="Group_370" data-name="Group 370" transform="translate(88.264 96.792)">
      <g id="Group_369" data-name="Group 369">
        <path id="Path_237" data-name="Path 237" d="M161.811,272.264H142.453A6.461,6.461,0,0,1,136,265.811V246.453A6.461,6.461,0,0,1,142.453,240h19.358a6.461,6.461,0,0,1,6.453,6.453v19.358A6.461,6.461,0,0,1,161.811,272.264Zm-19.358-25.811v19.358h19.365l-.006-19.358Z" transform="translate(-136 -240)" fill="#b4b6bc"/>
      </g>
    </g>
    <g id="Group_372" data-name="Group 372" transform="translate(88.264 138.735)">
      <g id="Group_371" data-name="Group 371">
        <path id="Path_238" data-name="Path 238" d="M161.811,376.264H142.453A6.461,6.461,0,0,1,136,369.811V350.453A6.461,6.461,0,0,1,142.453,344h19.358a6.461,6.461,0,0,1,6.453,6.453v19.358A6.461,6.461,0,0,1,161.811,376.264Zm-19.358-25.811v19.358h19.365l-.006-19.358Z" transform="translate(-136 -344)" fill="#b4b6bc"/>
      </g>
    </g>
    <g id="Group_374" data-name="Group 374" transform="translate(97.943 96.792)">
      <g id="Group_373" data-name="Group 373">
        <path id="Path_239" data-name="Path 239" d="M169.679,262.584a3.214,3.214,0,0,1-2.281-.945l-6.453-6.453a3.226,3.226,0,1,1,4.563-4.563l4.171,4.172,13.851-13.851a3.226,3.226,0,1,1,4.563,4.562l-16.132,16.132A3.215,3.215,0,0,1,169.679,262.584Z" transform="translate(-160 -239.999)" fill="#ff4f19"/>
      </g>
    </g>
  </g>
</svg>
