<svg xmlns="http://www.w3.org/2000/svg" width="251.925" height="165.903" viewBox="0 0 251.925 165.903">
  <g id="video-tutorial" transform="translate(0 0)">
    <path id="Path_215" data-name="Path 215" d="M241.685,165.9H10.241A10.241,10.241,0,0,1,0,155.66V10.241A10.24,10.24,0,0,1,10.241,0H241.685a10.24,10.24,0,0,1,10.241,10.241V155.662A10.241,10.241,0,0,1,241.685,165.9Zm0,0" fill="#7ae57d"/>
    <path id="Path_216" data-name="Path 216" d="M242.409.051V147.494a10.24,10.24,0,0,1-10.241,10.241H.418a10.244,10.244,0,0,0,10.035,8.194H241.9a10.241,10.241,0,0,0,10.241-10.243V10.266A10.233,10.233,0,0,0,242.409.05Zm0,0" transform="translate(-0.212 -0.026)" fill="#66d166"/>
    <path id="Path_217" data-name="Path 217" d="M35.383,161.346V40.5a5.119,5.119,0,0,1,5.12-5.12H247.368a5.119,5.119,0,0,1,5.12,5.12V161.346a5.12,5.12,0,0,1-5.12,5.12H40.5a5.12,5.12,0,0,1-5.12-5.12Zm0,0" transform="translate(-17.973 -17.973)" fill="#ddf5ff"/>
    <path id="Path_218" data-name="Path 218" d="M244.3,35.383V153.152a5.121,5.121,0,0,1-5.12,5.122H35.383v3.071a5.12,5.12,0,0,0,5.12,5.12H247.368a5.12,5.12,0,0,0,5.12-5.12V40.5a5.119,5.119,0,0,0-5.12-5.12Zm0,0" transform="translate(-17.973 -17.973)" fill="#c1e9f4"/>
    <path id="Path_219" data-name="Path 219" d="M113.474,217.734h40.451a5.121,5.121,0,0,0,5.12-5.12V198.788a30.721,30.721,0,0,0-30.722-30.722h-29.7A30.721,30.721,0,0,0,67.9,198.788v13.825a5.121,5.121,0,0,0,5.12,5.12Zm0,0" transform="translate(-34.492 -85.371)" fill="#ffd664"/>
    <path id="Path_220" data-name="Path 220" d="M195.844,168.293a30.694,30.694,0,0,1,14.365,26v23.555h8.7a5.121,5.121,0,0,0,5.12-5.12V198.9A30.718,30.718,0,0,0,195.844,168.293Zm0,0" transform="translate(-99.48 -85.486)" fill="#f9c646"/>
    <path id="Path_221" data-name="Path 221" d="M159.824,89.67a21.506,21.506,0,1,0-43.011,0v11.265a21.506,21.506,0,0,0,43.011,0Zm0,0" transform="translate(-59.336 -34.624)" fill="#feccc1"/>
    <path id="Path_222" data-name="Path 222" d="M156.028,68.16a21.629,21.629,0,0,0-4.351.442,21.514,21.514,0,0,1,17.152,21.064v11.265A21.514,21.514,0,0,1,151.676,122a21.526,21.526,0,0,0,25.857-21.066V89.666A21.506,21.506,0,0,0,156.028,68.16Zm0,0" transform="translate(-77.045 -34.622)" fill="#f9b3a7"/>
    <path id="Path_223" data-name="Path 223" d="M328.87,105.122l26.924,13.462a3.073,3.073,0,0,1,0,5.5L328.87,137.543a3.073,3.073,0,0,1-4.448-2.749V107.871a3.073,3.073,0,0,1,4.448-2.749Zm0,0" transform="translate(-164.793 -53.231)" fill="#ff6969"/>
    <g id="Group_349" data-name="Group 349" transform="translate(134.412 100.103)">
      <path id="Path_224" data-name="Path 224" d="M355.865,223.614H277.012a3.84,3.84,0,1,1,0-7.68h78.854a3.84,3.84,0,0,1,0,7.68Zm0,0" transform="translate(-273.171 -209.789)" fill="#636363"/>
      <path id="Path_225" data-name="Path 225" d="M310.313,223.415a3.839,3.839,0,0,1-3.84-3.84v-12.29a3.84,3.84,0,1,1,7.68,0v12.29A3.84,3.84,0,0,1,310.313,223.415Zm0,0" transform="translate(-290.087 -203.445)" fill="#636363"/>
    </g>
  </g>
</svg>
