<?xml version="1.0" encoding="utf-8"?>
<!-- Generator: Adobe Illustrator 16.0.0, SVG Export Plug-In . SVG Version: 6.00 Build 0)  -->
<!DOCTYPE svg PUBLIC "-//W3C//DTD SVG 1.1//EN" "http://www.w3.org/Graphics/SVG/1.1/DTD/svg11.dtd">
<svg version="1.1" id="Layer_1" xmlns="http://www.w3.org/2000/svg" xmlns:xlink="http://www.w3.org/1999/xlink" x="0px" y="0px"
	 width="200px" height="200px" viewBox="0 0 200 200" enable-background="new 0 0 200 200" xml:space="preserve">
<g>
	<path fill-rule="evenodd" clip-rule="evenodd" d="M3.716,84.257c0-19.631,0.005-39.262-0.002-58.893
		C3.71,11.115,9.214,5.526,23.319,5.514C36.094,5.503,48.867,5.517,61.641,5.51c2.615-0.002,6.032-0.322,6.117,3.09
		c0.087,3.455-3.36,3.271-5.945,3.278c-13.009,0.03-26.021-0.046-39.03,0.043c-10.244,0.069-12.631,2.493-12.625,12.502
		c0.023,38.793,0.054,77.588,0.107,116.38c0.014,10.018,2.958,13.085,12.956,13.493c33.475,1.358,65.775-4.599,96.975-16.389
		c16.996-6.423,34.43-9.621,52.495-9.945c1.418-0.025,2.837-0.075,4.257-0.062c2.291,0.017,4.639,0.646,4.764,3.179
		c0.126,2.552-2.072,3.411-4.433,3.461c-1.183,0.022-2.367,0.101-3.547,0.045c-17.74-0.849-34.626,2.903-51.137,9.119
		c-32.602,12.275-66.246,18.282-101.175,16.579c-11.172-0.543-17.042-5.957-17.122-17.129"/>
	<path fill-rule="evenodd" clip-rule="evenodd" d="M197.748,102.846c0,26.719,0.039,53.441-0.019,80.16
		c-0.024,11.565-5.41,16.954-16.803,16.977c-17.734,0.036-35.469,0.042-53.204-0.027c-2.365-0.009-5.994,1.093-5.976-2.859
		c0.019-3.922,3.635-2.846,6.009-2.854c17.025-0.069,34.051,0.003,51.077-0.056c9.886-0.03,13.114-3.306,13.117-13.168
		c0.014-52.024,0.014-104.046,0.001-156.069c-0.001-10.322-2.593-12.964-13.055-13.029c-13.951-0.087,8.213-0.126-41.854-0.087
		c-2.356,0.002-5.936,0.846-6.027-3.02c-0.089-3.817,3.294-3.276,5.816-3.282c14.897-0.033,29.795-0.135,44.691,0.026
		c10.138,0.109,16.183,6.304,16.206,16.417C197.791,48.931,197.749,75.888,197.748,102.846z"/>
	<path fill-rule="evenodd" clip-rule="evenodd" d="M80.517,126.268c-1.738-4.332-4.773-4.969-7.72-5.788
		c-6.566-1.831-13.138-3.645-19.675-5.575c-7.942-2.344-9.114-6.016-3.802-12.018c3.603-4.069,7.603-7.802,11.036-12.002
		c4.041-4.942,7.792-3.472,11.262,0.203c3.421,3.627,4.068,8.348,3.923,13.191c-0.067,2.255-1.077,3.679-3.369,3.659
		c-2.111-0.018-2.522-1.654-2.753-3.432c-0.417-3.206,0.297-7.95-2.815-8.886c-3.698-1.113-5.113,3.982-7.679,6.176
		c-2.097,1.792-3.736,4.119-5.976,6.656c8.059,2.228,15.457,4.266,22.854,6.315c6.2,1.72,10.215,5.712,11.979,11.862
		c1.481,5.167-0.439,7.479-5.643,6.406c-17.047-3.506-34.09-7.05-51.059-10.911c-8.73-1.986-11.201-8.8-5.935-15.909
		c7.306-9.862,14.693-19.678,22.437-29.197c5.962-7.331,13.105-13.052,23.473-12.262c1.86,0.143,4.138-0.102,4.346,2.502
		c0.225,2.826-1.789,3.653-4.181,3.495c-8.263-0.542-13.918,4.119-18.607,9.895c-7.433,9.154-14.303,18.766-21.601,28.035
		c-3.72,4.725-2.717,6.733,3.089,7.867C49.292,119.521,64.407,122.867,80.517,126.268z"/>
	<path fill-rule="evenodd" clip-rule="evenodd" fill="#00FFFF" d="M96.501,115.869c0.617-8.724,1.239-16.456,1.673-24.2
		c0.156-2.782,0.461-5.669-1.105-8.265c-0.987-1.635-2.216-3.432-0.003-4.906c2.345-1.561,4.972-1.365,7.396-0.093
		c2.365,1.241,1.157,2.932,0.608,4.804c-2.504,8.546-0.818,17.224-0.453,25.855c0.239,5.638,0.591,11.269,0.724,16.906
		c0.07,3.045-1.04,6.268-4.335,6.218c-3.645-0.053-4.651-3.262-4.531-6.703C96.596,121.961,96.501,118.431,96.501,115.869z"/>
	<g>
		<path fill-rule="evenodd" clip-rule="evenodd" d="M180.722,29.458c-2.691-4.613-6.834-5.099-11.653-4.325
			c-11.853,1.905-23.751,3.528-35.604,5.437c-3.471,0.558-6.003,0.897-5.752-4.012c0.419-8.212-3.682-13.879-10.907-17.387
			c0.811-2.412,4.915-3.251,3.12-6.523c-1.451-2.644-4.262-1.273-6.47-1.427c-8.43-0.59-16.663-0.334-22.917,7.428
			c-1.394-6.703-4.524-6.109-8.307-2.806c-5.25,4.583-8.108,10.302-8.114,17.344c-0.005,6.854-0.041,13.709,0.006,20.564
			c0.08,11.736,9.008,24.211,19.712,27.631c10.78,3.442,20.669-0.104,27.856-12.281c4.58-7.764,10.722-9.048,19.574-9.278
			c-4.128,2.992-7.352,5.264-10.5,7.638c-1.619,1.224-2.71,2.795-1.292,4.834c1.48,2.131,3.146,1.363,4.841,0.163
			c4.427-3.132,8.961-6.12,13.3-9.37c2.351-1.761,4.136-3.985,2.295-7.261c-1.617-2.882-4.046-3.725-7.169-3.188
			c-3.245,0.559-6.505,1.037-9.754,1.568c-2.086,0.341-4.736,2.429-5.183-1.885c-0.353-3.393,0.692-5.119,4.441-5.627
			c12.129-1.639,24.197-3.711,36.314-5.438c2.137-0.306,4.936-1.442,6.354,1.344c1.383,2.709-0.987,4.309-2.453,6.061
			c-10.912,13.04-21.368,26.505-32.899,38.975c-11.516,12.452-11.638,27.761-13.055,42.943c-0.185,1.977,0.287,3.995,2.882,3.948
			c2.464-0.047,2.848-1.955,3.052-3.972c0.379-3.752,0.957-7.485,1.298-11.24c0.911-9.997,3.097-19.221,10.218-27.16
			c11.661-13.003,22.548-26.697,33.831-40.042C180.982,38.336,183.713,34.581,180.722,29.458z M111.999,61.786
			c-6.094,6.275-16.991,6.041-22.962-0.283c-2.875-3.049-6.158-6.556-7.131-10.394c-3.021-11.928-2.47-24.026,0.48-37.652
			c2.247,3.421,0.466,6.797,3.758,7.468c2.919,0.597,3.972-2.102,5.43-3.83c3.792-4.498,7.373-9.231,14.591-10.137
			c-2.096,4.704-1.351,6.832,4.177,7.411c8.387,0.881,10.674,4.286,10.727,12.743c0.028,4.721-0.422,9.492,0.098,14.156
			C122.143,50.043,117.427,56.195,111.999,61.786z"/>
		<path fill-rule="evenodd" clip-rule="evenodd" d="M107.089,34.601c-2.176-0.174-3.728,1.157-3.893,3.22
			c-0.188,2.38,1.303,4.158,3.715,4.166c2.033,0.007,3.164-1.697,3.811-3.879C110.17,36.414,109.24,34.772,107.089,34.601z"/>
		<path fill-rule="evenodd" clip-rule="evenodd" d="M95.216,34.746c-2.329-0.012-4.118,1.101-3.985,3.765
			c0.111,2.213,1.819,3.055,3.708,3.593c1.932-0.51,3.416-1.344,3.477-3.682C98.475,36.138,97.427,34.757,95.216,34.746z"/>
		<path fill-rule="evenodd" clip-rule="evenodd" d="M84.855,32.865c6.02,2.356,8.982-6.445,15.454-0.765
			C96.302,25.233,95.298,24.86,84.855,32.865z"/>
		<path fill-rule="evenodd" clip-rule="evenodd" d="M111.49,28.527c-1.063-0.248-2.356,0.661-1.997,1.104
			c1.724,2.133,3.798,3.982,5.805,5.87c0.018,0.017,1.247-0.854,1.208-1.24C116.206,31.208,114.419,29.336,111.49,28.527z"/>
	</g>
</g>
</svg>
